<svg width="51" height="38" viewBox="0 0 51 38" fill="none" xmlns="http://www.w3.org/2000/svg">
<path d="M3.4565 26.312C3.4565 25.36 3.2605 24.7067 2.8685 24.352C2.4765 23.9973 1.92583 23.82 1.2165 23.82V21.02C1.92583 21.02 2.4765 20.8333 2.8685 20.46C3.2605 20.068 3.4565 19.4613 3.4565 18.64V12.788C3.4565 11.78 3.68983 10.9587 4.1565 10.324C4.64183 9.68933 5.40716 9.372 6.4525 9.372H9.8125V12.452H8.4125C7.9085 12.452 7.53516 12.5827 7.2925 12.844C7.0685 13.1053 6.9565 13.5347 6.9565 14.132V19.592C6.9565 20.4133 6.7605 21.0387 6.3685 21.468C5.9765 21.8787 5.51916 22.1307 4.9965 22.224V22.504C5.5005 22.5787 5.9485 22.8587 6.3405 23.344C6.75116 23.8293 6.9565 24.464 6.9565 25.248V30.68C6.9565 31.2773 7.0685 31.7067 7.2925 31.968C7.5165 32.2293 7.89916 32.36 8.4405 32.36H9.8125V35.44H6.4525C5.48183 35.44 4.73516 35.1413 4.2125 34.544C3.7085 33.9653 3.4565 33.1347 3.4565 32.052V26.312Z" fill="black"/>
<path d="M44.5705 18.5C44.5705 19.452 44.7665 20.1053 45.1585 20.46C45.5505 20.8147 46.1012 20.992 46.8105 20.992V23.792C46.1012 23.792 45.5505 23.988 45.1585 24.38C44.7665 24.7533 44.5705 25.3507 44.5705 26.172V32.024C44.5705 33.032 44.3185 33.8533 43.8145 34.488C43.3292 35.1227 42.5638 35.44 41.5185 35.44H38.2425V32.36H39.6425C40.1465 32.36 40.5105 32.2293 40.7345 31.968C40.9772 31.7253 41.0985 31.296 41.0985 30.68V25.22C41.0985 24.3987 41.2945 23.7827 41.6865 23.372C42.0785 22.9427 42.5358 22.6813 43.0585 22.588V22.308C42.5545 22.2333 42.0972 21.9533 41.6865 21.468C41.2945 20.9827 41.0985 20.348 41.0985 19.564V14.132C41.0985 13.5533 40.9865 13.1333 40.7625 12.872C40.5385 12.592 40.1558 12.452 39.6145 12.452H38.2425V9.372H41.5745C42.5638 9.372 43.3105 9.67067 43.8145 10.268C44.3185 10.8467 44.5705 11.6773 44.5705 12.76V18.5Z" fill="black"/>
<path d="M18.0834 19.52H14.6434L13.7954 22H11.6034L15.6354 10.72H17.2514L21.2834 22H18.9794L18.0834 19.52ZM15.2034 17.76H17.6034L16.7714 15.264L16.4354 13.504H16.3554L16.0194 15.28L15.2034 17.76Z" fill="black"/>
<path d="M34.0565 32.536C33.7152 32.7813 33.2778 32.9573 32.7445 33.064C32.2218 33.1707 31.6832 33.224 31.1285 33.224C30.4565 33.224 29.8165 33.1227 29.2085 32.92C28.6112 32.7067 28.0832 32.3707 27.6245 31.912C27.1658 31.4427 26.7978 30.84 26.5205 30.104C26.2538 29.3573 26.1205 28.456 26.1205 27.4C26.1205 26.3013 26.2698 25.384 26.5685 24.648C26.8778 23.9013 27.2725 23.304 27.7525 22.856C28.2432 22.3973 28.7872 22.072 29.3845 21.88C29.9818 21.6773 30.5792 21.576 31.1765 21.576C31.8165 21.576 32.3552 21.6187 32.7925 21.704C33.2405 21.7893 33.6085 21.8907 33.8965 22.008L33.4645 23.864C33.2192 23.7467 32.9258 23.6613 32.5845 23.608C32.2538 23.5547 31.8485 23.528 31.3685 23.528C30.4832 23.528 29.7685 23.8427 29.2245 24.472C28.6912 25.1013 28.4245 26.0773 28.4245 27.4C28.4245 27.976 28.4885 28.504 28.6165 28.984C28.7445 29.4533 28.9365 29.8587 29.1925 30.2C29.4592 30.5307 29.7845 30.792 30.1685 30.984C30.5632 31.1653 31.0165 31.256 31.5285 31.256C32.0085 31.256 32.4138 31.208 32.7445 31.112C33.0752 31.016 33.3632 30.8933 33.6085 30.744L34.0565 32.536Z" fill="black"/>
<path d="M28.901 10.064L30.665 10.848L20.445 33.92L18.681 33.136L28.901 10.064Z" fill="black"/>
</svg>
